<?xml version="1.0" encoding="UTF-8"?>
<svg width="24px" height="24px" viewBox="0 0 24 24" version="1.1" xmlns="http://www.w3.org/2000/svg" xmlns:xlink="http://www.w3.org/1999/xlink">
    <!-- Generator: Sketch 43.1 (39012) - http://www.bohemiancoding.com/sketch -->
    <title>icon_基础信息</title>
    <desc>Created with Sketch.</desc>
    <defs></defs>
    <g id="云箱" stroke="none" stroke-width="1" fill="none" fill-rule="evenodd">
        <g id="云箱概览" transform="translate(-32.000000, -312.000000)" fill-rule="nonzero" fill="#7FCB81">
            <g id="nav">
                <g id="line-copy-2" transform="translate(0.000000, 287.000000)">
                    <g id="基础信息" transform="translate(32.000000, 25.000000)">
                        <path d="M9.23212594,13.2553738 L4.67602818,13.2553738 C4.21893135,13.2553738 3.84835405,12.8797327 3.84835405,12.4163898 C3.84835405,11.953047 4.21893135,11.5774059 4.67602818,11.5774059 L9.23212597,11.5774059 C9.6892228,11.5774059 10.0598001,11.953047 10.0598001,12.4163898 C10.0598001,12.8797327 9.6892228,13.2553738 9.23212594,13.2553738 Z" id="Shape"></path>
                        <path d="M17.0351066,16.468207 L4.67602818,16.468207 C4.21893135,16.468207 3.84835405,16.0925659 3.84835405,15.629223 C3.84835405,15.1658801 4.21893135,14.790239 4.67602818,14.790239 L17.0351066,14.790239 C17.4922034,14.790239 17.8627807,15.1658801 17.8627807,15.629223 C17.8627807,16.0925659 17.492231,16.468207 17.0351066,16.468207 Z" id="Shape"></path>
                        <path d="M22.7556591,0.264042716 C22.4324524,-0.063608477 21.9083691,-0.063608477 21.5851624,0.264042716 L12.1429455,9.83528365 C11.8197112,10.1629348 11.8197112,10.6941515 12.1429455,11.0218027 C12.3045351,11.1856283 12.5163645,11.2675412 12.7281939,11.2675412 C12.9400233,11.2675412 13.1518251,11.1856283 13.3134422,11.0218027 L22.7556591,1.45053384 C23.0788935,1.12291061 23.0788935,0.591693935 22.7556591,0.264042716 Z" id="Shape"></path>
                        <path d="M19.0551557,7.2127596 C18.5980313,7.2127596 18.2274815,7.58837274 18.2274815,8.05174357 C18.2274815,8.05448425 18.2276747,8.05719697 18.2276747,8.05993765 L18.2274815,8.05993765 L18.2274815,19.1657082 C18.2274815,19.795897 17.7217175,20.3085722 17.1000239,20.3085722 L3.78329886,20.3085722 C3.16160523,20.3085722 2.65584116,19.795897 2.65584116,19.1657082 L2.65584116,5.66701556 C2.65584116,5.03682673 3.16163284,4.5241516 3.78329886,4.5241516 L15.3109234,4.5241516 L15.3110062,4.51995668 C15.3222902,4.5204321 15.3336017,4.52082362 15.3450236,4.52082362 C15.8012376,4.52082362 16.17107,4.1459376 16.17107,3.68348965 C16.17107,3.2210417 15.8012376,2.84615569 15.3450236,2.84615569 C15.3283598,2.84615569 15.3118339,2.84679891 15.2954183,2.84780569 C15.26576,2.84682686 15.2360465,2.84615569 15.2061675,2.84615569 L3.78329886,2.84615571 C2.2488462,2.84615571 1.0004929,4.11159522 1.0004929,5.6669876 L1.0004929,19.1656803 C1.0004929,20.7211006 2.24887378,21.9865121 3.78329886,21.9865121 L17.1000239,21.9865121 C18.6344765,21.9865121 19.8828298,20.7211006 19.8828298,19.1656803 L19.8828298,8.04010967 L19.8825263,8.04010967 C19.8763739,7.5821363 19.5084176,7.2127596 19.0551557,7.2127596 Z" id="Shape"></path>
                    </g>
                </g>
            </g>
        </g>
    </g>
</svg>