<?xml version="1.0" encoding="UTF-8"?>
<svg width="24px" height="24px" viewBox="0 0 24 24" version="1.1" xmlns="http://www.w3.org/2000/svg" xmlns:xlink="http://www.w3.org/1999/xlink">
    <!-- Generator: Sketch 43.1 (39012) - http://www.bohemiancoding.com/sketch -->
    <title>icon_云箱概览</title>
    <desc>Created with Sketch.</desc>
    <defs></defs>
    <g id="云箱" stroke="none" stroke-width="1" fill="none" fill-rule="evenodd">
        <g id="云箱概览" transform="translate(-32.000000, -171.000000)" fill-rule="nonzero" fill="#EDC38A">
            <g id="nav">
                <g id="line-copy-4" transform="translate(0.000000, 149.000000)">
                    <g id="仪表盘" transform="translate(32.000000, 22.000000)">
                        <path d="M12.7514054,15.5287176 L12.7514054,9.07150976 C12.7513362,8.66630567 12.4155452,8.33785875 12.0013501,8.33785875 C11.5871549,8.33785875 11.251364,8.66630567 11.2512948,9.07150976 L11.2512948,15.5287176 C10.7945152,15.7866255 10.5097307,16.2602499 10.5012395,16.7761327 C10.5012395,17.5866367 11.1728619,18.2436799 12.0013501,18.2436799 C12.8298383,18.2436799 13.5014607,17.5866367 13.5014607,16.7761327 C13.4929694,16.2602499 13.208185,15.7866255 12.7514054,15.5287176 L12.7514054,15.5287176 Z" id="Shape"></path>
                        <path d="M12.0013501,1 C6.93400234,1.00007317 2.41278335,4.11389739 0.703762106,8.78080051 C-1.00525914,13.4477036 0.466262057,18.6618298 4.38078819,21.8098197 C4.69975615,22.069181 5.17324994,22.0264732 5.43836617,21.7144291 C5.70348239,21.4023851 5.65982694,20.9391696 5.34085897,20.6798083 C1.92538029,17.9441227 0.623408343,13.4108286 2.08267107,9.33522899 C3.54193379,5.25962938 7.45084361,2.51196251 11.8647272,2.45918609 C16.2786108,2.40640968 20.2549982,5.05979276 21.8156462,9.09928357 C23.3762941,13.1387744 22.1879669,17.7018448 18.8418544,20.5183781 C18.5270289,20.7817919 18.4900897,21.2450074 18.7593484,21.5529989 C19.028607,21.8609904 19.5021008,21.8971278 19.8169263,21.633714 C23.6140449,18.4322975 24.9772243,13.2593051 23.2354831,8.66097629 C21.4937419,4.06264746 17.0140333,1.0077663 12.0013501,1 L12.0013501,1 Z" id="Shape"></path>
                        <path d="M19.351892,9.80528338 C19.4725446,9.8040805 19.5910394,9.77383983 19.6969175,9.71723055 C20.0646793,9.53409853 20.2121487,9.0947363 20.0269418,8.7339739 C18.529023,5.85265814 15.537722,4.00594802 12.2345255,3.9232463 C8.931329,3.84054458 5.84738624,5.53514959 4.20077491,8.33773614 C3.99365286,8.69030536 4.117903,9.14038001 4.47829537,9.343006 C4.83868774,9.54563199 5.29874909,9.42407898 5.50587114,9.07150976 C6.87934383,6.74425485 9.44334468,5.33766479 12.189402,5.40497898 C14.9354594,5.47229316 17.424234,7.00274204 18.6768423,9.39437016 C18.8030416,9.64634142 19.0650745,9.80584491 19.351892,9.80528338 L19.351892,9.80528338 Z" id="Shape"></path>
                    </g>
                </g>
            </g>
        </g>
    </g>
</svg>