<?xml version="1.0" encoding="UTF-8"?>
<svg width="24px" height="24px" viewBox="0 0 24 24" version="1.1" xmlns="http://www.w3.org/2000/svg" xmlns:xlink="http://www.w3.org/1999/xlink">
    <!-- Generator: Sketch 43.1 (39012) - http://www.bohemiancoding.com/sketch -->
    <title>icon_dashboard</title>
    <desc>Created with Sketch.</desc>
    <defs></defs>
    <g id="云箱" stroke="none" stroke-width="1" fill="none" fill-rule="evenodd">
        <g id="云箱概览" transform="translate(-32.000000, -103.000000)" fill-rule="nonzero" fill="#F05E5E">
            <g id="nav">
                <g id="line" transform="translate(0.000000, 81.000000)">
                    <g id="概览icon" transform="translate(32.000000, 25.729730)">
                        <path d="M23.9781249,14.4296556 C23.9781249,15.2002049 23.2567975,15.8248409 22.3670316,15.8248409 L1.62412285,15.8248409 C0.734329375,15.8248409 0.013029573,15.200181 0.013029573,14.4296556 L0.013029573,1.40788583 C0.013029573,0.637336521 0.734356962,0.012700487 1.62412285,0.012700487 L22.3670316,0.012700487 C23.2568251,0.012700487 23.9781249,0.637360411 23.9781249,1.40788583 L23.9781249,14.4296556 Z M22.7026668,2.20878399 C22.7026668,1.5330329 22.0581357,0.985224792 21.2630475,0.985224792 L2.72807938,0.985224792 C1.93301876,0.985224792 1.28846004,1.5330329 1.28846004,2.20878399 L1.28846004,13.6287814 C1.28846004,14.3045324 1.93299117,14.8523406 2.72807938,14.8523406 L21.2630751,14.8523406 C22.0581357,14.8523406 22.7026944,14.3045324 22.7026944,13.6287814 L22.7026945,2.20878399 L22.7026668,2.20878399 Z" id="Shape"></path>
                        <path d="M7.31292348,12.800163 C7.31292348,13.1533325 6.98231048,13.439615 6.57451491,13.439615 L6.57451491,13.439615 C6.16669176,13.439615 5.83610635,13.1533086 5.83610635,12.800163 L5.83610637,4.37088636 C5.83610637,4.01771694 6.16671937,3.73143437 6.57451494,3.73143437 L6.57451494,3.73143437 C6.98233809,3.73143437 7.31292351,4.01774083 7.31292351,4.37088636 L7.31292348,12.800163 Z" id="Shape"></path>
                        <path d="M11.1616494,12.800163 C11.1616494,13.1533325 10.8310364,13.439615 10.4232408,13.439615 L10.4232408,13.439615 C10.0154176,13.439615 9.68483223,13.1533086 9.68483223,12.800163 L9.68483226,6.81248462 C9.68483226,6.45931519 10.0154453,6.17303262 10.4232408,6.17303262 L10.4232408,6.17303262 C10.831064,6.17303262 11.1616494,6.45933908 11.1616494,6.81248462 L11.1616494,12.800163 Z" id="Shape"></path>
                        <path d="M15.0104029,12.800163 C15.0104029,13.1533325 14.6797899,13.439615 14.2719943,13.439615 L14.2719943,13.439615 C13.8641711,13.439615 13.5335857,13.1533086 13.5335857,12.800163 L13.5335858,3.12104078 C13.5335858,2.76787136 13.8641988,2.48158879 14.2719943,2.48158879 L14.2719943,2.48158879 C14.6798175,2.48158879 15.0104029,2.76789525 15.0104029,3.12104078 L15.0104029,12.800163 Z" id="Shape"></path>
                        <path d="M18.8591288,12.800163 C18.8591288,13.1533325 18.5285158,13.439615 18.1207202,13.439615 L18.1207202,13.439615 C17.712897,13.439615 17.3823116,13.1533086 17.3823116,12.800163 L17.3823116,8.19311686 C17.3823116,7.83994743 17.7129246,7.55366486 18.1207202,7.55366486 L18.1207202,7.55366486 C18.5285433,7.55366486 18.8591288,7.83997132 18.8591288,8.19311686 L18.8591288,12.800163 Z" id="Shape"></path>
                        <path d="M17.4333896,6.17300873 C17.4333896,6.52040088 17.7585874,6.80201786 18.1597392,6.80201786 C18.5608911,6.80201786 18.8860889,6.52040088 18.8860889,6.17300873 C18.8860889,5.82561658 18.5608911,5.5439996 18.1597392,5.5439996 C17.7585874,5.5439996 17.4333896,5.82561658 17.4333896,6.17300873 Z" id="Shape"></path>
                        <path d="M17.3943706,4.17789655 C17.3943706,4.5252887 17.7195684,4.80690568 18.1207202,4.80690568 C18.521872,4.80690568 18.8470699,4.5252887 18.8470699,4.17789655 C18.8470699,3.8305044 18.521872,3.54888742 18.1207202,3.54888742 C17.7195684,3.54888742 17.3943706,3.8305044 17.3943706,4.17789655 Z" id="Shape"></path>
                        <path d="M17.5840846,17.0874712 C17.9919078,17.0874712 18.3224932,17.3737777 18.3224932,17.7269232 L18.3224932,17.7269232 C18.3224932,18.0800927 17.9918802,18.3663752 17.5840846,18.3663752 L6.40706982,18.3663752 C5.99924667,18.3663752 5.66866126,18.0800688 5.66866126,17.7269232 L5.66866126,17.7269232 C5.66866126,17.3737538 5.99927426,17.0874712 6.40706982,17.0874712 L17.5840846,17.0874712 Z" id="Shape"></path>
                    </g>
                </g>
            </g>
        </g>
    </g>
</svg>