<?xml version="1.0" encoding="UTF-8"?>
<svg width="16px" height="17px" viewBox="0 0 16 17" version="1.1" xmlns="http://www.w3.org/2000/svg" xmlns:xlink="http://www.w3.org/1999/xlink">
    <!-- Generator: Sketch 43.1 (39012) - http://www.bohemiancoding.com/sketch -->
    <title>icon_租赁方管理</title>
    <desc>Created with Sketch.</desc>
    <defs></defs>
    <g id="云箱" stroke="none" stroke-width="1" fill="none" fill-rule="evenodd">
        <g id="租赁管理--管理方" transform="translate(-1207.000000, -546.000000)" fill-rule="nonzero" fill="#8496DA">
            <g id="表" transform="translate(270.000000, 513.000000)">
                <path d="M952.687944,36.3752078 L949.635941,33.3232045 C949.214605,32.9018688 948.531564,32.9018688 948.110229,33.3232045 L945.058225,36.3752078 C944.63689,36.7965434 944.63689,37.4795841 945.058225,37.9009197 L948.110229,40.9529231 C948.531564,41.3742587 949.214586,41.3742587 949.635941,40.9529231 L952.687944,37.9009197 C953.109279,37.4795648 953.109279,36.7965434 952.687944,36.3752078 L952.687944,36.3752078 Z M948.873094,40.1900381 L945.82111,37.1380541 L948.873094,34.0860701 L951.925078,37.1380541 L948.873094,40.1900381 L948.873094,40.1900381 Z M942.399011,33.9010224 L938.082963,33.9010224 C937.486816,33.9010224 937.003946,34.3838732 937.003946,34.9800394 L937.003946,39.2960882 C937.003946,39.8922351 937.486796,40.3751052 938.082963,40.3751052 L942.399011,40.3751052 C942.995158,40.3751052 943.478028,39.8922544 943.478028,39.2960882 L943.478028,34.9800201 C943.478028,34.3838731 942.995158,33.9010224 942.399011,33.9010224 L942.399011,33.9010224 Z M942.399011,42.5331199 L938.082963,42.5331199 C937.486816,42.5331199 937.003946,43.0159707 937.003946,43.612137 L937.003946,47.9281857 C937.003946,48.5243326 937.486796,49.0072028 938.082963,49.0072028 L942.399011,49.0072028 C942.995158,49.0072028 943.478028,48.524352 943.478028,47.9281857 L943.478028,43.612137 C943.478028,43.0159707 942.995158,42.5331199 942.399011,42.5331199 L942.399011,42.5331199 Z M951.031109,42.5331199 L946.71506,42.5331199 C946.118913,42.5331199 945.636043,43.0159707 945.636043,43.612137 L945.636043,47.9281857 C945.636043,48.5243326 946.118894,49.0072028 946.71506,49.0072028 L951.031109,49.0072028 C951.627256,49.0072028 952.110126,48.524352 952.110126,47.9281857 L952.110126,43.612137 C952.110126,43.0159707 951.627275,42.5331199 951.031109,42.5331199 L951.031109,42.5331199 Z" id="icon_租赁方管理"></path>
            </g>
        </g>
    </g>
</svg>